<svg width="32" height="32" viewBox="0 0 32 32" fill="none" xmlns="http://www.w3.org/2000/svg">
<path d="M18.8281 16.0002L31.4143 3.4154C32.1955 2.63412 32.1955 1.36742 31.4143 0.586205C30.633 -0.195076 29.3663 -0.195076 28.5851 0.586205L16.0002 13.1723L3.4154 0.586205C2.63412 -0.195076 1.36742 -0.195076 0.586205 0.586205C-0.195013 1.36749 -0.195076 2.63418 0.586205 3.4154L13.1723 16.0002L0.586205 28.5851C-0.195076 29.3663 -0.195076 30.633 0.586205 31.4143C1.36749 32.1955 2.63418 32.1955 3.4154 31.4143L16.0002 18.8281L28.585 31.4143C29.3663 32.1955 30.633 32.1955 31.4142 31.4143C32.1955 30.633 32.1955 29.3663 31.4142 28.5851L18.8281 16.0002Z" fill="white"/>
</svg>
