<svg width="148" height="148" viewBox="0 0 148 148" fill="none" xmlns="http://www.w3.org/2000/svg">
<g filter="url(#filter0_d_328_3153)">
<circle cx="74" cy="74" r="24" fill="url(#paint0_linear_328_3153)"/>
</g>
<path d="M82.21 70.82L76 64.78C75.474 64.2799 74.7759 64.001 74.05 64.001C73.3241 64.001 72.626 64.2799 72.1 64.78L65.89 70.78C65.6141 71.0209 65.3922 71.3173 65.2388 71.6499C65.0854 71.9825 65.004 72.3438 65 72.71V81.29C65.0105 82.0176 65.309 82.7114 65.8301 83.2194C66.3512 83.7273 67.0524 84.008 67.78 84H80.22C80.9476 84.008 81.6488 83.7273 82.1699 83.2194C82.691 82.7114 82.9895 82.0176 83 81.29V72.71C82.9992 72.3585 82.929 72.0106 82.7935 71.6862C82.6579 71.3619 82.4596 71.0675 82.21 70.82ZM73.44 66.22C73.593 66.0802 73.7927 66.0026 74 66.0026C74.2073 66.0026 74.407 66.0802 74.56 66.22L80 71.5L74.53 76.78C74.377 76.9199 74.1773 76.9974 73.97 76.9974C73.7627 76.9974 73.563 76.9199 73.41 76.78L68 71.5L73.44 66.22ZM81 81.29C80.9871 81.4863 80.8987 81.67 80.7532 81.8024C80.6078 81.9348 80.4166 82.0056 80.22 82H67.78C67.5834 82.0056 67.3922 81.9348 67.2468 81.8024C67.1013 81.67 67.0129 81.4863 67 81.29V73.35L71.05 77.25L69.39 78.85C69.2037 79.0374 69.0992 79.2908 69.0992 79.555C69.0992 79.8192 69.2037 80.0727 69.39 80.26C69.4829 80.3575 69.5946 80.4352 69.7184 80.4885C69.8421 80.5418 69.9753 80.5695 70.11 80.57C70.3675 80.569 70.6146 80.4687 70.8 80.29L72.57 78.59C73.0096 78.8587 73.5148 79.0008 74.03 79.0008C74.5452 79.0008 75.0504 78.8587 75.49 78.59L77.26 80.29C77.4454 80.4687 77.6925 80.569 77.95 80.57C78.0847 80.5695 78.2179 80.5418 78.3416 80.4885C78.4654 80.4352 78.5771 80.3575 78.67 80.26C78.8563 80.0727 78.9608 79.8192 78.9608 79.555C78.9608 79.2908 78.8563 79.0374 78.67 78.85L77 77.25L81 73.35V81.29Z" fill="black"/>
<defs>
<filter id="filter0_d_328_3153" x="0" y="0" width="148" height="148" filterUnits="userSpaceOnUse" color-interpolation-filters="sRGB">
<feFlood flood-opacity="0" result="BackgroundImageFix"/>
<feColorMatrix in="SourceAlpha" type="matrix" values="0 0 0 0 0 0 0 0 0 0 0 0 0 0 0 0 0 0 127 0" result="hardAlpha"/>
<feOffset/>
<feGaussianBlur stdDeviation="25"/>
<feComposite in2="hardAlpha" operator="out"/>
<feColorMatrix type="matrix" values="0 0 0 0 0 0 0 0 0 1 0 0 0 0 0.032258 0 0 0 1 0"/>
<feBlend mode="normal" in2="BackgroundImageFix" result="effect1_dropShadow_328_3153"/>
<feBlend mode="normal" in="SourceGraphic" in2="effect1_dropShadow_328_3153" result="shape"/>
</filter>
<linearGradient id="paint0_linear_328_3153" x1="49.2" y1="34" x2="92.4" y2="120.4" gradientUnits="userSpaceOnUse">
<stop offset="0.327115" stop-color="#C5FFC6"/>
<stop offset="0.926887" stop-color="#04F90C"/>
</linearGradient>
</defs>
</svg>
