<svg width="181" height="41" viewBox="0 0 181 41" fill="none" xmlns="http://www.w3.org/2000/svg">
<path d="M28.0669 25.707L23.7938 32.0042L29.1914 41.0002L33.352 34.5905L28.0669 25.707Z" fill="#33654D"/>
<path d="M20.9156 7.15268L28.4497 6.70288L12.1445 34.0281L0 40.7751L20.9156 7.15268Z" fill="#3AA06F"/>
<path d="M30.1365 9.96387V23.3454L23.502 34.4779L15.6305 34.253L30.1365 9.96387Z" fill="#3AA06F"/>
<path d="M30.1366 9.96387V23.3454L40.8193 40.775H48.6908L30.1366 9.96387Z" fill="#3AA06F"/>
<path d="M12.1445 34.0283L23.5019 34.4781L19.6787 40.7753H0L12.1445 34.0283Z" fill="#3AA06F"/>
<path d="M33.2851 34.478L37.2209 40.9439H29.1245L33.2851 34.478Z" fill="#3AA06F"/>
<path d="M79.9053 40.8871H52.342V1.5188H60.2212V33.008H79.9053V40.8871Z" fill="#3AA06F"/>
<path d="M111.01 40.8871H84.0234V1.5188H111.01V9.39795H91.9025V17.2771H104.833V25.1563H91.9025V33.008H111.01V40.8871Z" fill="#3AA06F"/>
<path d="M133.055 40.8871H125.204V9.39795H113.371V1.5188H144.86V9.39795H133.055V40.8871Z" fill="#3AA06F"/>
<path d="M156.912 40.8871H149.033V1.5188H156.912V17.2771H172.643V1.5188H180.522V40.8871H172.643V25.1563H156.912V40.8871Z" fill="#3AA06F"/>
<path d="M32.3854 0L24.7388 12.8193L13.8312 6.63451L32.3854 0Z" fill="#3AA06F"/>
</svg>
