<svg width="40" height="40" viewBox="0 0 40 40" fill="none" xmlns="http://www.w3.org/2000/svg">
<path d="M20 5C11.7125 5 5 11.8869 5 20.3806C5 27.1775 9.2975 32.9413 15.2563 34.9735C16.0063 35.1182 16.2812 34.6422 16.2812 34.2339C16.2812 33.8687 16.2688 32.9009 16.2625 31.6187C12.09 32.5461 11.21 29.5553 11.21 29.5553C10.5275 27.7801 9.54125 27.3053 9.54125 27.3053C8.1825 26.3519 9.64625 26.3714 9.64625 26.3714C11.1525 26.4784 11.9437 27.9562 11.9437 27.9562C13.2812 30.3079 15.455 29.6283 16.3125 29.2357C16.4475 28.2405 16.8338 27.5636 17.2625 27.1788C13.9313 26.794 10.43 25.4714 10.43 19.5785C10.43 17.8998 11.0113 16.5277 11.9738 15.4516C11.805 15.0629 11.2987 13.499 12.105 11.3808C12.105 11.3808 13.3612 10.9686 16.23 12.9577C17.43 12.616 18.705 12.4464 19.98 12.4386C21.255 12.4464 22.53 12.616 23.73 12.9577C26.58 10.9686 27.8362 11.3808 27.8362 11.3808C28.6425 13.499 28.1362 15.0629 27.9862 15.4516C28.9425 16.5277 29.5238 17.8998 29.5238 19.5785C29.5238 25.4871 26.0175 26.7875 22.68 27.1658C23.205 27.6275 23.6925 28.5705 23.6925 30.0118C23.6925 32.07 23.6737 33.7239 23.6737 34.2235C23.6737 34.6265 23.9363 35.1078 24.705 34.9539C30.7062 32.9348 35 27.1671 35 20.3806C35 11.8869 28.2838 5 20 5Z" fill="#3AA06F"/>
</svg>
