<svg width="40" height="40" viewBox="0 0 40 40" fill="none" xmlns="http://www.w3.org/2000/svg">
<path fill-rule="evenodd" clip-rule="evenodd" d="M12.6678 3.63647H27.332C32.3123 3.63647 36.3639 7.68813 36.3637 12.668V27.3322C36.3637 32.3121 32.3123 36.3637 27.332 36.3637H12.6678C7.68794 36.3637 3.63647 32.3123 3.63647 27.3322V12.668C3.63647 7.68813 7.68794 3.63647 12.6678 3.63647ZM27.3322 33.46C30.7112 33.46 33.4602 30.7112 33.4602 27.3322H33.46V12.668C33.46 9.28925 30.711 6.5402 27.332 6.5402H12.6678C9.28905 6.5402 6.5402 9.28925 6.5402 12.668V27.3322C6.5402 30.7112 9.28905 33.4602 12.6678 33.46H27.3322ZM11.4287 20.0003C11.4287 15.2738 15.2738 11.4287 20.0001 11.4287C24.7265 11.4287 28.5715 15.2738 28.5715 20.0003C28.5715 24.7266 24.7265 28.5715 20.0001 28.5715C15.2738 28.5715 11.4287 24.7266 11.4287 20.0003ZM14.3801 20.0001C14.3801 23.0989 16.9014 25.6199 20.0001 25.6199C23.0989 25.6199 25.6202 23.0989 25.6202 20.0001C25.6202 16.9011 23.0991 14.3799 20.0001 14.3799C16.9012 14.3799 14.3801 16.9011 14.3801 20.0001Z" fill="#3AA06F"/>
<mask id="mask0_33_816" style="mask-type:luminance" maskUnits="userSpaceOnUse" x="3" y="3" width="34" height="34">
<path fill-rule="evenodd" clip-rule="evenodd" d="M12.6678 3.63647H27.332C32.3123 3.63647 36.3639 7.68813 36.3637 12.668V27.3322C36.3637 32.3121 32.3123 36.3637 27.332 36.3637H12.6678C7.68794 36.3637 3.63647 32.3123 3.63647 27.3322V12.668C3.63647 7.68813 7.68794 3.63647 12.6678 3.63647ZM27.3322 33.46C30.7112 33.46 33.4602 30.7112 33.4602 27.3322H33.46V12.668C33.46 9.28925 30.711 6.5402 27.332 6.5402H12.6678C9.28905 6.5402 6.5402 9.28925 6.5402 12.668V27.3322C6.5402 30.7112 9.28905 33.4602 12.6678 33.46H27.3322ZM11.4287 20.0003C11.4287 15.2738 15.2738 11.4287 20.0001 11.4287C24.7265 11.4287 28.5715 15.2738 28.5715 20.0003C28.5715 24.7266 24.7265 28.5715 20.0001 28.5715C15.2738 28.5715 11.4287 24.7266 11.4287 20.0003ZM14.3801 20.0001C14.3801 23.0989 16.9014 25.6199 20.0001 25.6199C23.0989 25.6199 25.6202 23.0989 25.6202 20.0001C25.6202 16.9011 23.0991 14.3799 20.0001 14.3799C16.9012 14.3799 14.3801 16.9011 14.3801 20.0001Z" fill="white"/>
</mask>
<g mask="url(#mask0_33_816)">
</g>
</svg>
