<svg width="114" height="26" viewBox="0 0 114 26" fill="none" xmlns="http://www.w3.org/2000/svg">
<path d="M17.6303 16.1479L14.9462 20.1035L18.3367 25.7544L20.9502 21.7282L17.6303 16.1479Z" fill="#33654D"/>
<path d="M13.1382 4.49299L17.8708 4.21045L7.62865 21.3749L0 25.6131L13.1382 4.49299Z" fill="#3AA06F"/>
<path d="M18.9304 6.25879V14.6644L14.7629 21.6574L9.81836 21.5161L18.9304 6.25879Z" fill="#3AA06F"/>
<path d="M18.9304 6.25879V14.6644L25.6408 25.613H30.5853L18.9304 6.25879Z" fill="#3AA06F"/>
<path d="M7.62865 21.375L14.7629 21.6575L12.3612 25.6131H0L7.62865 21.375Z" fill="#3AA06F"/>
<path d="M20.9082 21.6575L23.3804 25.719H18.2947L20.9082 21.6575Z" fill="#3AA06F"/>
<path d="M50.1929 25.6835H32.8789V0.954102H37.8282V20.7342H50.1929V25.6835Z" fill="#3AA06F"/>
<path d="M69.7315 25.6835H52.7797V0.954102H69.7315V5.90343H57.729V10.8528H65.8514V15.8021H57.729V20.7342H69.7315V25.6835Z" fill="#3AA06F"/>
<path d="M83.5793 25.6835H78.6472V5.90343H71.2146V0.954102H90.9947V5.90343H83.5793V25.6835Z" fill="#3AA06F"/>
<path d="M98.5652 25.6835H93.6159V0.954102H98.5652V10.8528H108.447V0.954102H113.396V25.6835H108.447V15.8021H98.5652V25.6835Z" fill="#3AA06F"/>
<path d="M20.343 0L15.5398 8.05247L8.68811 4.1675L20.343 0Z" fill="#3AA06F"/>
</svg>
