<svg width="148" height="148" viewBox="0 0 148 148" fill="none" xmlns="http://www.w3.org/2000/svg">
<g filter="url(#filter0_d_328_3160)">
<circle cx="74" cy="74" r="24" fill="url(#paint0_linear_328_3160)"/>
</g>
<path d="M81.4102 75C81.1902 75 80.9602 74.93 80.7402 74.88C80.295 74.7805 79.8573 74.6501 79.4302 74.49C78.9663 74.3212 78.4563 74.33 77.9985 74.5146C77.5406 74.6992 77.1673 75.0466 76.9502 75.49L76.7302 75.95C75.759 75.3992 74.8618 74.7271 74.0602 73.95C73.283 73.1484 72.611 72.2512 72.0602 71.28L72.5202 71.07C72.9635 70.8529 73.311 70.4795 73.4956 70.0217C73.6802 69.5639 73.6889 69.0539 73.5202 68.59C73.3614 68.159 73.2311 67.7181 73.1302 67.27C73.0802 67.05 73.0402 66.82 73.0102 66.6C72.8887 65.8956 72.5198 65.2577 71.9698 64.8012C71.4198 64.3447 70.7249 64.0996 70.0102 64.11H67.0002C66.5774 64.1094 66.1593 64.1982 65.7733 64.3706C65.3873 64.5429 65.042 64.7949 64.7602 65.11C64.4725 65.4337 64.2583 65.8158 64.1323 66.23C64.0063 66.6443 63.9714 67.081 64.0302 67.51C64.5738 71.6721 66.4754 75.5387 69.4402 78.51C72.4115 81.4748 76.278 83.3764 80.4402 83.92C80.57 83.9299 80.7004 83.9299 80.8302 83.92C81.5676 83.9211 82.2796 83.6505 82.8302 83.16C83.1453 82.8782 83.3973 82.5329 83.5696 82.1469C83.7419 81.7609 83.8307 81.3428 83.8302 80.92V77.92C83.8248 77.229 83.581 76.5611 83.1401 76.0291C82.6992 75.4971 82.0881 75.1336 81.4102 75ZM81.9002 81C81.8998 81.1395 81.8703 81.2775 81.8135 81.4049C81.7566 81.5324 81.6738 81.6465 81.5702 81.74C81.4606 81.8399 81.3301 81.9141 81.1883 81.9573C81.0465 82.0006 80.8968 82.0117 80.7502 81.99C77.0184 81.5026 73.5504 79.802 70.8802 77.15C68.2076 74.4775 66.4922 70.9974 66.0002 67.25C65.9784 67.1033 65.9896 66.9537 66.0328 66.8119C66.0761 66.67 66.1503 66.5396 66.2502 66.43C66.3448 66.3252 66.4605 66.2415 66.5898 66.1847C66.7191 66.1278 66.8589 66.0989 67.0002 66.1H70.0002C70.2313 66.0944 70.4573 66.169 70.6396 66.3112C70.822 66.4534 70.9494 66.6544 71.0002 66.88C71.0002 67.15 71.0902 67.43 71.1502 67.7C71.2657 68.2239 71.4195 68.7386 71.6102 69.24L70.2102 69.9C69.9695 70.0105 69.7825 70.2119 69.6902 70.46C69.5902 70.7035 69.5902 70.9765 69.6902 71.22C71.1294 74.3028 73.6074 76.7808 76.6902 78.22C76.9336 78.32 77.2067 78.32 77.4502 78.22C77.6983 78.1276 77.8997 77.9406 78.0102 77.7L78.6402 76.3C79.1561 76.4881 79.6839 76.6418 80.2202 76.76C80.4802 76.82 80.7602 76.87 81.0302 76.91C81.2558 76.9608 81.4568 77.0882 81.599 77.2705C81.7412 77.4529 81.8158 77.6788 81.8102 77.91L81.9002 81ZM76.0002 64C75.7702 64 75.5302 64 75.3002 64C75.035 64.0225 74.7896 64.1495 74.618 64.353C74.4464 64.5565 74.3626 64.8198 74.3852 65.085C74.4077 65.3502 74.5347 65.5956 74.7382 65.7672C74.9416 65.9388 75.205 66.0225 75.4702 66H76.0002C77.5915 66 79.1176 66.6321 80.2428 67.7574C81.368 68.8826 82.0002 70.4087 82.0002 72C82.0002 72.18 82.0002 72.35 82.0002 72.53C81.978 72.7938 82.0613 73.0556 82.2319 73.2581C82.4025 73.4606 82.6464 73.5871 82.9102 73.61H82.9902C83.2405 73.611 83.4821 73.5181 83.6673 73.3496C83.8524 73.1811 83.9676 72.9493 83.9902 72.7C83.9902 72.47 83.9902 72.23 83.9902 72C83.9902 69.88 83.1487 67.8467 81.6506 66.3467C80.1524 64.8467 78.1202 64.0027 76.0002 64ZM78.0002 72C78.0002 72.2652 78.1055 72.5196 78.2931 72.7071C78.4806 72.8946 78.735 73 79.0002 73C79.2654 73 79.5197 72.8946 79.7073 72.7071C79.8948 72.5196 80.0002 72.2652 80.0002 72C80.0002 70.9391 79.5787 69.9217 78.8286 69.1716C78.0785 68.4214 77.061 68 76.0002 68C75.735 68 75.4806 68.1054 75.2931 68.2929C75.1055 68.4804 75.0002 68.7348 75.0002 69C75.0002 69.2652 75.1055 69.5196 75.2931 69.7071C75.4806 69.8946 75.735 70 76.0002 70C76.5306 70 77.0393 70.2107 77.4144 70.5858C77.7895 70.9609 78.0002 71.4696 78.0002 72Z" fill="black"/>
<defs>
<filter id="filter0_d_328_3160" x="0" y="0" width="148" height="148" filterUnits="userSpaceOnUse" color-interpolation-filters="sRGB">
<feFlood flood-opacity="0" result="BackgroundImageFix"/>
<feColorMatrix in="SourceAlpha" type="matrix" values="0 0 0 0 0 0 0 0 0 0 0 0 0 0 0 0 0 0 127 0" result="hardAlpha"/>
<feOffset/>
<feGaussianBlur stdDeviation="25"/>
<feComposite in2="hardAlpha" operator="out"/>
<feColorMatrix type="matrix" values="0 0 0 0 0 0 0 0 0 1 0 0 0 0 0.032258 0 0 0 1 0"/>
<feBlend mode="normal" in2="BackgroundImageFix" result="effect1_dropShadow_328_3160"/>
<feBlend mode="normal" in="SourceGraphic" in2="effect1_dropShadow_328_3160" result="shape"/>
</filter>
<linearGradient id="paint0_linear_328_3160" x1="49.2" y1="34" x2="92.4" y2="120.4" gradientUnits="userSpaceOnUse">
<stop offset="0.327115" stop-color="#C5FFC6"/>
<stop offset="0.926887" stop-color="#04F90C"/>
</linearGradient>
</defs>
</svg>
