<svg width="40" height="40" viewBox="0 0 40 40" fill="none" xmlns="http://www.w3.org/2000/svg">
<path fill-rule="evenodd" clip-rule="evenodd" d="M36.3636 10.2433C35.226 10.7474 34.0053 11.0892 32.7228 11.2418C34.0324 10.4577 35.0348 9.21382 35.5099 7.73624C34.2815 8.46245 32.9256 8.98978 31.4809 9.27563C30.3239 8.04144 28.6783 7.27271 26.8531 7.27271C23.3514 7.27271 20.5121 10.1119 20.5121 13.6117C20.5121 14.1081 20.5681 14.5929 20.6763 15.0565C15.4073 14.7918 10.7351 12.2675 7.60813 8.43154C7.06151 9.36639 6.75055 10.4557 6.75055 11.6185C6.75055 13.8184 7.8708 15.7595 9.5705 16.8952C8.53136 16.8604 7.55403 16.5746 6.69843 16.0994V16.1786C6.69843 19.2496 8.88484 21.8127 11.7839 22.396C11.2528 22.5389 10.6927 22.6181 10.1132 22.6181C9.70378 22.6181 9.30782 22.5776 8.91959 22.5003C9.72691 25.0208 12.0679 26.8538 14.8415 26.904C12.6724 28.6037 9.93747 29.6139 6.96691 29.6139C6.45509 29.6139 5.95095 29.583 5.45459 29.5269C8.261 31.329 11.5928 32.3797 15.1737 32.3797C26.8377 32.3797 33.2135 22.7186 33.2135 14.3399L33.1922 13.5191C34.438 12.6305 35.5157 11.5142 36.3636 10.2433Z" fill="#3AA06F"/>
<mask id="mask0_33_815" style="mask-type:luminance" maskUnits="userSpaceOnUse" x="5" y="7" width="32" height="26">
<path fill-rule="evenodd" clip-rule="evenodd" d="M36.3636 10.2433C35.226 10.7474 34.0053 11.0892 32.7228 11.2418C34.0324 10.4577 35.0348 9.21382 35.5099 7.73624C34.2815 8.46245 32.9256 8.98978 31.4809 9.27563C30.3239 8.04144 28.6783 7.27271 26.8531 7.27271C23.3514 7.27271 20.5121 10.1119 20.5121 13.6117C20.5121 14.1081 20.5681 14.5929 20.6763 15.0565C15.4073 14.7918 10.7351 12.2675 7.60813 8.43154C7.06151 9.36639 6.75055 10.4557 6.75055 11.6185C6.75055 13.8184 7.8708 15.7595 9.5705 16.8952C8.53136 16.8604 7.55403 16.5746 6.69843 16.0994V16.1786C6.69843 19.2496 8.88484 21.8127 11.7839 22.396C11.2528 22.5389 10.6927 22.6181 10.1132 22.6181C9.70378 22.6181 9.30782 22.5776 8.91959 22.5003C9.72691 25.0208 12.0679 26.8538 14.8415 26.904C12.6724 28.6037 9.93747 29.6139 6.96691 29.6139C6.45509 29.6139 5.95095 29.583 5.45459 29.5269C8.261 31.329 11.5928 32.3797 15.1737 32.3797C26.8377 32.3797 33.2135 22.7186 33.2135 14.3399L33.1922 13.5191C34.438 12.6305 35.5157 11.5142 36.3636 10.2433Z" fill="white"/>
</mask>
<g mask="url(#mask0_33_815)">
</g>
</svg>
